<svg xmlns="http://www.w3.org/2000/svg" width="430" height="860" viewBox="0 0 430 860" font-family="Inter, Arial, sans-serif">
<rect width="100%" height="100%" fill="#FFFFFF"/>
<text x="20" y="24" font-size="15" font-weight="700" fill="#1F2937">C06 · Ayuda · preguntas frecuentes</text>
<text x="20" y="40" font-size="11" fill="#6B7280">Móvil 390 px · skeleton · vista del cliente (usuario) del prototipo de Figma</text>
<g transform="translate(20,50)"><rect width="390" height="790" rx="18" fill="#EEF0F2" stroke="#D5D9DE"/>
<clipPath id="cC06"><rect width="390" height="790" rx="18"/></clipPath><g clip-path="url(#cC06)">
<rect x="0" y="0" width="390" height="101" rx="0" fill="#FFFFFF"/>
<rect x="16" y="16.0" width="23" height="7" rx="3.5" fill="#D0D4D9"/>
<rect x="139" y="16.0" width="113" height="7" rx="3.5" fill="#D0D4D9"/>
<rect x="352" y="16.0" width="22" height="7" rx="3.5" fill="#D0D4D9"/>
<rect x="0" y="32" width="390" height="69" rx="0" fill="#FFFFFF"/>
<rect x="27" y="55" width="22" height="22" rx="11.0" fill="#B5BBC2"/>
<rect x="171" y="61.0" width="49" height="9" rx="4.5" fill="#9AA1AA"/>
<rect x="20" y="128.5" width="211" height="11" rx="5.5" fill="#9AA1AA"/>
<rect x="20" y="158.5" width="325" height="8" rx="4.0" fill="#D0D4D9"/>
<rect x="16" y="189" width="358" height="52" rx="18" fill="#FFFFFF"/>
<rect x="32" y="210.5" width="134" height="8" rx="4.0" fill="#9AA1AA"/>
<rect x="340" y="206" width="18" height="18" rx="9.0" fill="#B5BBC2"/>
<rect x="16" y="249" width="358" height="52" rx="18" fill="#FFFFFF"/>
<rect x="32" y="270.5" width="276" height="8" rx="4.0" fill="#9AA1AA"/>
<rect x="340" y="266" width="18" height="18" rx="9.0" fill="#B5BBC2"/>
<rect x="16" y="309" width="358" height="72" rx="18" fill="#FFFFFF"/>
<rect x="32" y="331.2" width="278" height="8" rx="4.0" fill="#9AA1AA"/>
<rect x="32" y="349.8" width="167" height="8" rx="4.0" fill="#9AA1AA"/>
<rect x="340" y="336" width="18" height="18" rx="9.0" fill="#B5BBC2"/>
<rect x="16" y="389" width="358" height="72" rx="18" fill="#FFFFFF"/>
<rect x="32" y="411.2" width="280" height="8" rx="4.0" fill="#9AA1AA"/>
<rect x="32" y="429.8" width="168" height="8" rx="4.0" fill="#9AA1AA"/>
<rect x="340" y="416" width="18" height="18" rx="9.0" fill="#B5BBC2"/>
<rect x="16" y="469" width="358" height="52" rx="18" fill="#FFFFFF"/>
<rect x="32" y="490.5" width="152" height="8" rx="4.0" fill="#9AA1AA"/>
<rect x="340" y="486" width="18" height="18" rx="9.0" fill="#B5BBC2"/>
<rect x="16" y="529" width="358" height="52" rx="18" fill="#FFFFFF"/>
<rect x="32" y="550.5" width="214" height="8" rx="4.0" fill="#9AA1AA"/>
<rect x="340" y="546" width="18" height="18" rx="9.0" fill="#B5BBC2"/>
<rect x="16" y="597" width="358" height="96" rx="18" fill="#FFFFFF"/>
<rect x="32" y="618.5" width="158" height="8" rx="4.0" fill="#9AA1AA"/>
<rect x="32" y="643.2" width="299" height="8" rx="4.0" fill="#D0D4D9"/>
<rect x="32" y="661.8" width="179" height="8" rx="4.0" fill="#D0D4D9"/>
<rect x="0" y="719" width="390" height="71" rx="0" fill="#FFFFFF" stroke="#C5CAD0" stroke-width="1.2"/>
<rect x="54" y="734" width="22" height="22" rx="11.0" fill="#B5BBC2"/>
<rect x="51" y="765.5" width="29" height="6" rx="3.0" fill="#9AA1AA"/>
<rect x="184" y="734" width="22" height="22" rx="11.0" fill="#B5BBC2"/>
<rect x="168" y="765.5" width="53" height="6" rx="3.0" fill="#9AA1AA"/>
<rect x="314" y="732" width="22" height="22" rx="11.0" fill="#B5BBC2"/>
<rect x="308" y="763.5" width="34" height="6" rx="3.0" fill="#9AA1AA"/>
<rect x="309" y="776" width="32" height="2" rx="1.0" fill="#8C939C"/>
</g></g></svg>